<svg xmlns="http://www.w3.org/2000/svg" viewBox="0 0 1600 900" width="1600" height="900"><defs><linearGradient id="gold" x1="0" y1="0" x2="1" y2="1"><stop offset="0" stop-color="#fff0a8"/><stop offset=".35" stop-color="#d6a72a"/><stop offset=".7" stop-color="#8b5a12"/><stop offset="1" stop-color="#f5ca52"/></linearGradient><linearGradient id="bronze" x1="0" y1="0" x2="1" y2="1"><stop offset="0" stop-color="#d9a96a"/><stop offset=".55" stop-color="#86501f"/><stop offset="1" stop-color="#c6873e"/></linearGradient></defs><g><rect x="650.0" y="120" width="61.0" height="190" fill="#b22234"/><rect x="710.0" y="120" width="61.0" height="190" fill="#fff"/><rect x="770.0" y="120" width="61.0" height="190" fill="#244aa5"/><rect x="830.0" y="120" width="61.0" height="190" fill="#fff"/><rect x="890.0" y="120" width="61.0" height="190" fill="#b22234"/><path d="M650 290 L800.0 370 L950 290" fill="none" stroke="#4a351b" stroke-width="8"/><circle cx="800.0" cy="375" r="22" fill="url(#gold)"/></g><polygon points="800.0,385.0 848.2,508.7 980.7,516.3 878.0,600.3 911.7,728.7 800.0,657.0 688.3,728.7 722.0,600.3 619.3,516.3 751.8,508.7" fill="#dfe5ea" stroke="#606b73" stroke-width="10"/><circle cx="800" cy="575" r="90" fill="#dfe5ea" stroke="#606b73" stroke-width="8"/><polygon points="800.0,523.0 812.9,557.2 849.5,558.9 820.9,581.8 830.6,617.1 800.0,597.0 769.4,617.1 779.1,581.8 750.5,558.9 787.1,557.2" fill="url(#gold)" stroke="#6d4613" stroke-width="5"/><path d="M710 620 Q800 675 890 620" fill="none" stroke="#5b8f3e" stroke-width="24"/></svg>